<svg width="15" height="13" viewBox="0 0 15 13" fill="none" xmlns="http://www.w3.org/2000/svg">
<path d="M13.7531 9.00137H4.44844L4.91562 8.0498L12.6781 8.03574C12.9406 8.03574 13.1656 7.84824 13.2125 7.58887L14.2875 1.57168C14.3156 1.41387 14.2734 1.25137 14.1703 1.12793C14.1193 1.06718 14.0558 1.01824 13.984 0.984519C13.9122 0.950793 13.834 0.933083 13.7547 0.932617L3.87969 0.899805L3.79531 0.50293C3.74219 0.249805 3.51406 0.0654297 3.25469 0.0654297H0.840625C0.694342 0.0654297 0.554049 0.123541 0.450611 0.226979C0.347173 0.330417 0.289063 0.470709 0.289062 0.616992C0.289063 0.763276 0.347173 0.903568 0.450611 1.00701C0.554049 1.11044 0.694342 1.16855 0.840625 1.16855H2.80781L3.17656 2.92168L4.08438 7.31699L2.91563 9.2248C2.85493 9.30672 2.81837 9.40399 2.81009 9.50561C2.8018 9.60723 2.82212 9.70914 2.86875 9.7998C2.9625 9.98574 3.15156 10.1029 3.36094 10.1029H4.34219C4.133 10.3808 4.02001 10.7192 4.02031 11.067C4.02031 11.9514 4.73906 12.6701 5.62344 12.6701C6.50781 12.6701 7.22656 11.9514 7.22656 11.067C7.22656 10.7186 7.11094 10.3795 6.90469 10.1029H9.42188C9.21268 10.3808 9.09969 10.7192 9.1 11.067C9.1 11.9514 9.81875 12.6701 10.7031 12.6701C11.5875 12.6701 12.3062 11.9514 12.3062 11.067C12.3062 10.7186 12.1906 10.3795 11.9844 10.1029H13.7547C14.0578 10.1029 14.3062 9.85605 14.3062 9.55137C14.3053 9.40524 14.2467 9.2654 14.1431 9.16236C14.0394 9.05932 13.8993 9.00145 13.7531 9.00137ZM4.10938 1.9873L13.1062 2.01699L12.225 6.95137L5.15781 6.96387L4.10938 1.9873ZM5.62344 11.5607C5.35156 11.5607 5.12969 11.3389 5.12969 11.067C5.12969 10.7951 5.35156 10.5732 5.62344 10.5732C5.89531 10.5732 6.11719 10.7951 6.11719 11.067C6.11719 11.1979 6.06517 11.3235 5.97257 11.4161C5.87998 11.5087 5.75439 11.5607 5.62344 11.5607ZM10.7031 11.5607C10.4312 11.5607 10.2094 11.3389 10.2094 11.067C10.2094 10.7951 10.4312 10.5732 10.7031 10.5732C10.975 10.5732 11.1969 10.7951 11.1969 11.067C11.1969 11.1979 11.1449 11.3235 11.0523 11.4161C10.9597 11.5087 10.8341 11.5607 10.7031 11.5607Z" fill="#E5E5E5"/>
</svg>
