<svg width="14" height="14" viewBox="0 0 14 14" fill="none" xmlns="http://www.w3.org/2000/svg">
<path d="M12.5 0H1.5C0.65625 0 0 0.6875 0 1.5V12.5C0 13.3438 0.65625 14 1.5 14H12.5C13.3125 14 14 13.3438 14 12.5V1.5C14 0.6875 13.3125 0 12.5 0ZM5.5625 7.21875C2.71875 5.15625 2.75 5.15625 2 4.5625V3.75C2 3.34375 2.3125 3 2.75 3H11.25C11.6562 3 12 3.34375 12 3.75V4.5625C11.2188 5.15625 11.25 5.15625 8.40625 7.21875C8.09375 7.4375 7.4375 8.03125 7 8C6.53125 8.03125 5.875 7.4375 5.5625 7.21875ZM12 5.8125V10.25C12 10.6875 11.6562 11 11.25 11H2.75C2.3125 11 2 10.6875 2 10.25V5.8125C2.40625 6.15625 3.03125 6.625 4.96875 8C5.40625 8.34375 6.15625 9.03125 6.96875 9C7.8125 9.03125 8.59375 8.3125 9 8C10.9375 6.625 11.5625 6.15625 12 5.8125Z" fill="#F2AA4C"/>
</svg>
