<svg width="11" height="12" viewBox="0 0 11 12" fill="none" xmlns="http://www.w3.org/2000/svg">
<path d="M5.33333 0.701172C6.04058 0.701172 6.71885 0.982123 7.21895 1.48222C7.71905 1.98232 8 2.66059 8 3.36784C8 4.07508 7.71905 4.75336 7.21895 5.25346C6.71885 5.75355 6.04058 6.0345 5.33333 6.0345C4.62609 6.0345 3.94781 5.75355 3.44771 5.25346C2.94762 4.75336 2.66667 4.07508 2.66667 3.36784C2.66667 2.66059 2.94762 1.98232 3.44771 1.48222C3.94781 0.982123 4.62609 0.701172 5.33333 0.701172ZM5.33333 7.36784C8.28 7.36784 10.6667 8.56117 10.6667 10.0345V11.3678H0V10.0345C0 8.56117 2.38667 7.36784 5.33333 7.36784Z" fill="#E5E5E5"/>
</svg>
