<svg width="14" height="14" viewBox="0 0 14 14" fill="none" xmlns="http://www.w3.org/2000/svg">
<path d="M12.5 0H1.5C0.65625 0 0 0.6875 0 1.5V12.5C0 13.3438 0.65625 14 1.5 14H12.5C13.3125 14 14 13.3438 14 12.5V1.5C14 0.6875 13.3125 0 12.5 0ZM2.9375 12C2.6875 12 2.5 11.875 2.46875 11.6562L2 9.625C2 9.59375 2 9.5625 2 9.5C2 9.3125 2.09375 9.15625 2.28125 9.09375L4.46875 8.15625C4.5 8.125 4.5625 8.125 4.625 8.125C4.78125 8.125 4.90625 8.1875 5 8.28125L5.96875 9.46875C7.5 8.75 8.71875 7.5 9.4375 6L8.25 5.03125C8.15625 4.9375 8.0625 4.8125 8.0625 4.65625C8.0625 4.59375 8.09375 4.53125 8.125 4.5L9.0625 2.3125C9.125 2.125 9.28125 2 9.5 2C9.53125 2 9.5625 2.03125 9.59375 2.03125L11.625 2.5C11.8438 2.53125 12 2.71875 12 2.9375C12 7.96875 7.9375 12 2.9375 12Z" fill="#F2AA4C"/>
</svg>
