<svg width="14" height="14" viewBox="0 0 14 14" fill="none" xmlns="http://www.w3.org/2000/svg">
<path fill-rule="evenodd" clip-rule="evenodd" d="M6.83301 0.0341797C8.55692 0.0341797 10.2102 0.718999 11.4292 1.93799C12.6482 3.15697 13.333 4.81027 13.333 6.53418C13.333 8.25809 12.6482 9.91139 11.4292 11.1304C10.2102 12.3494 8.55692 13.0342 6.83301 13.0342C5.1091 13.0342 3.4558 12.3494 2.23681 11.1304C1.01783 9.91139 0.333008 8.25809 0.333008 6.53418C0.333008 4.81027 1.01783 3.15697 2.23681 1.93799C3.4558 0.718999 5.1091 0.0341797 6.83301 0.0341797ZM11.727 4.03418C11.0857 2.78719 9.99429 1.83059 8.67401 1.35818C9.11801 2.19818 9.43901 3.09818 9.62701 4.03418H11.727ZM12.309 7.02918C12.325 6.86467 12.333 6.69947 12.333 6.53418C12.332 6.02671 12.2603 5.52186 12.12 5.03418H9.77801C9.81001 5.36518 9.83301 5.69818 9.83301 6.03418C9.83094 6.70603 9.76193 7.37601 9.62701 8.03418H12.12C12.215 7.70518 12.278 7.36918 12.31 7.02918H12.309ZM8.77401 7.02918L8.78001 6.97818C8.81413 6.66465 8.83182 6.34956 8.83301 6.03418C8.82629 5.69969 8.80092 5.36584 8.75701 5.03418H4.90901C4.86473 5.3658 4.83935 5.69967 4.83301 6.03418C4.83545 6.70747 4.91361 7.37836 5.06601 8.03418H8.60001C8.67701 7.70218 8.73501 7.36718 8.77401 7.02918ZM8.58201 4.03418C8.34641 2.97653 7.92122 1.97029 7.32701 1.06418C7.16301 1.05018 6.99901 1.03418 6.83301 1.03418C6.72884 1.03469 6.62474 1.03969 6.52101 1.04918L6.33901 1.06418L6.33301 1.07418C5.74193 1.97764 5.31881 2.98039 5.08401 4.03418H8.58201ZM4.03901 4.03418C4.23082 3.09883 4.55615 2.19592 5.00501 1.35318C3.67899 1.82398 2.58247 2.78281 1.93901 4.03418H4.03901ZM1.54601 5.03418C1.4059 5.52191 1.33421 6.02673 1.33301 6.53418C1.33421 7.04163 1.4059 7.54645 1.54601 8.03418H4.03901C3.90343 7.37611 3.83442 6.70607 3.83301 6.03418C3.83301 5.69818 3.85601 5.36518 3.88801 5.03418H1.54601ZM4.30001 9.03418H1.94001C2.31802 9.77256 2.85773 10.4162 3.51895 10.917C4.18016 11.4179 4.94586 11.7632 5.75901 11.9272C5.11899 11.0484 4.62622 10.0713 4.30001 9.03418ZM6.83301 11.6782C7.47245 10.8873 7.97229 9.99315 8.31101 9.03418H5.35501C5.69375 9.99314 6.19358 10.8873 6.83301 11.6782ZM9.36601 9.03418C9.03978 10.0713 8.54701 11.0483 7.90701 11.9272C8.72011 11.7631 9.48574 11.4177 10.1469 10.9169C10.8081 10.416 11.3479 9.77247 11.726 9.03418H9.36601Z" fill="#E5E5E5"/>
</svg>
